<svg xmlns="http://www.w3.org/2000/svg" xmlns:xlink="http://www.w3.org/1999/xlink" width="32" height="32" viewBox="0 0 32 32">
  <defs>
    <clipPath id="clip-path">
      <rect id="Retângulo_2140" data-name="Retângulo 2140" width="32" height="32" transform="translate(-1832 -2069)" fill="#fff" stroke="#707070" stroke-width="1" opacity="0.3"/>
    </clipPath>
  </defs>
  <g id="user" transform="translate(1832 2069)" clip-path="url(#clip-path)">
    <g id="user_people_person_users_man" data-name="user people person users man" transform="translate(-1826.521 -2066)">
      <path id="Caminho_8" data-name="Caminho 8" d="M23.74,16.18a1,1,0,1,0-1.41,1.42A9,9,0,0,1,25,24c0,1.22-3.51,3-9,3s-9-1.78-9-3a9,9,0,0,1,2.63-6.37,1,1,0,0,0-1.41-1.41A10.92,10.92,0,0,0,5,24c0,3.25,5.67,5,11,5s11-1.75,11-5a10.94,10.94,0,0,0-3.26-7.82Z" transform="translate(-5 -3)" fill="#414141" stroke="#fff" stroke-width="0.5"/>
      <path id="Caminho_9" data-name="Caminho 9" d="M16,17a7,7,0,1,0-7-7A7,7,0,0,0,16,17ZM16,5a5,5,0,1,1-5,5A5,5,0,0,1,16,5Z" transform="translate(-5 -3)" fill="#414141" stroke="#fff" stroke-width="0.5"/>
    </g>
  </g>
</svg>
