<svg xmlns="http://www.w3.org/2000/svg" width="18.395" height="18.395" viewBox="0 0 18.395 18.395">
  <path id="instagram" d="M9.2,0C6.7,0,6.387.011,5.406.055A6.782,6.782,0,0,0,3.173.483,4.5,4.5,0,0,0,1.544,1.544,4.488,4.488,0,0,0,.483,3.173,6.762,6.762,0,0,0,.055,5.406C.009,6.387,0,6.7,0,9.2s.011,2.811.055,3.792a6.786,6.786,0,0,0,.428,2.233,4.51,4.51,0,0,0,1.061,1.629,4.5,4.5,0,0,0,1.629,1.061,6.79,6.79,0,0,0,2.233.428c.981.046,1.293.055,3.792.055s2.811-.011,3.792-.055a6.806,6.806,0,0,0,2.233-.428,4.7,4.7,0,0,0,2.69-2.69,6.786,6.786,0,0,0,.428-2.233c.046-.981.055-1.293.055-3.792s-.011-2.811-.055-3.792a6.8,6.8,0,0,0-.428-2.233,4.514,4.514,0,0,0-1.061-1.629A4.481,4.481,0,0,0,15.222.483,6.766,6.766,0,0,0,12.989.055C12.008.009,11.7,0,9.2,0Zm0,1.656c2.455,0,2.748.012,3.717.054a5.067,5.067,0,0,1,1.707.318,3.027,3.027,0,0,1,1.746,1.745,5.078,5.078,0,0,1,.317,1.707c.044.97.054,1.262.054,3.717s-.011,2.748-.057,3.717a5.176,5.176,0,0,1-.323,1.707,2.92,2.92,0,0,1-.689,1.059,2.869,2.869,0,0,1-1.058.687,5.115,5.115,0,0,1-1.713.317c-.976.044-1.264.054-3.724.054s-2.748-.011-3.724-.057a5.215,5.215,0,0,1-1.714-.323,2.848,2.848,0,0,1-1.057-.689,2.793,2.793,0,0,1-.69-1.058A5.22,5.22,0,0,1,1.668,12.9c-.034-.966-.047-1.264-.047-3.713s.012-2.748.047-3.726A5.214,5.214,0,0,1,1.99,3.748a2.726,2.726,0,0,1,.69-1.058A2.72,2.72,0,0,1,3.736,2a5.091,5.091,0,0,1,1.7-.323c.977-.034,1.265-.046,3.724-.046Zm0,2.819A4.723,4.723,0,1,0,13.92,9.2,4.723,4.723,0,0,0,9.2,4.475Zm0,7.789A3.066,3.066,0,1,1,12.263,9.2,3.065,3.065,0,0,1,9.2,12.263Zm6.014-7.975a1.1,1.1,0,1,1-1.1-1.1A1.1,1.1,0,0,1,15.211,4.288Z" fill="#fff"/>
</svg>
