<svg xmlns="http://www.w3.org/2000/svg" xmlns:xlink="http://www.w3.org/1999/xlink" width="76" height="61" viewBox="0 0 76 61">
  <defs>
    <clipPath id="clip-path">
      <rect id="Retângulo_1" data-name="Retângulo 1" width="76" height="61" transform="translate(-0.196)" fill="#fff" stroke="#707070" stroke-width="1"/>
    </clipPath>
    <clipPath id="clip-path-2">
      <rect id="Retângulo_1-2" data-name="Retângulo 1" width="69" height="46" transform="translate(-0.196 0)" fill="#fff" stroke="#707070" stroke-width="1"/>
    </clipPath>
  </defs>
  <g id="letsencrypt" transform="translate(0.196)" clip-path="url(#clip-path)">
    <g id="Grupo_de_máscara_1" data-name="Grupo de máscara 1" transform="translate(1 8)" clip-path="url(#clip-path-2)">
      <g id="LetsEncrypt-2" data-name="LetsEncrypt" transform="translate(-0.237 1.43)">
        <path id="Caminho_1" data-name="Caminho 1" d="M184.738,41.254h-3.693V39.432a2.763,2.763,0,0,0-5.521,0v1.823h-3.695V39.432a6.46,6.46,0,0,1,12.908,0Z" transform="translate(-123.345 -25.012)" fill="#ffa400"/>
        <path id="Caminho_2" data-name="Caminho 2" d="M179.369,66.679H162.143a1.505,1.505,0,0,0-.955.314.976.976,0,0,0-.389.773V78.041a1.217,1.217,0,0,0,1.343,1.084h17.226a1.217,1.217,0,0,0,1.343-1.084V67.766a1.271,1.271,0,0,0-1.343-1.085ZM171.6,73.426v1.392a.9.9,0,0,1-1.765,0V73.426a1.372,1.372,0,0,1-.881-1.254,1.805,1.805,0,0,1,3.529,0,1.315,1.315,0,0,1-.883,1.254Z" transform="translate(-115.818 -50.6)" fill="#003a70"/>
        <path id="Caminho_3" data-name="Caminho 3" d="M144.2,14.509H140.44a1.067,1.067,0,1,1,0-2.133H144.2a1.067,1.067,0,1,1,0,2.133Zm2.653-5.737a.994.994,0,0,1-.684-.258l-2.959-2.348a1.063,1.063,0,0,1-.153-1.505,1.147,1.147,0,0,1,1.555-.144l2.961,2.353a1.063,1.063,0,0,1,.153,1.505,1.279,1.279,0,0,1-.874.4Zm6.716-2.5a1.084,1.084,0,0,1-1.1-1.064V1.534a1.1,1.1,0,0,1,2.2,0V5.206a1.079,1.079,0,0,1-1.1,1.064Zm6.678,2.5a1.079,1.079,0,0,1-.683-1.912l2.959-2.354a1.147,1.147,0,0,1,1.557.144,1.071,1.071,0,0,1-.153,1.505l-2.961,2.353a1.085,1.085,0,0,1-.719.258Zm6.414,5.737h-3.8a1.067,1.067,0,1,1,0-2.133h3.8a1.067,1.067,0,1,1,0,2.133Z" transform="translate(-98.609 -0.527)" fill="#ffa400"/>
        <path id="Caminho_4" data-name="Caminho 4" d="M.394,83.244V72.163H3.606v8.748H8.766v2.333Zm19.023-3.811v.618H12.61a1.482,1.482,0,0,0,.247.582,1.414,1.414,0,0,0,.5.444,2.481,2.481,0,0,0,.7.306,3.179,3.179,0,0,0,.784.1,2.66,2.66,0,0,0,1.238-.239,2.218,2.218,0,0,0,.824-.581L19.049,81.8a4.513,4.513,0,0,1-1.734,1.236,6.994,6.994,0,0,1-2.517.444,7.436,7.436,0,0,1-1.982-.273,5.4,5.4,0,0,1-1.654-.791,4.18,4.18,0,0,1-1.115-1.3,3.5,3.5,0,0,1-.41-1.75,3.36,3.36,0,0,1,.41-1.715,4.332,4.332,0,0,1,2.683-2.126,6.615,6.615,0,0,1,3.883-.032,4.875,4.875,0,0,1,1.487.823,3.667,3.667,0,0,1,.951,1.339,4.255,4.255,0,0,1,.372,1.783Zm-2.846-.96a1.51,1.51,0,0,0-.454-1.063,1.883,1.883,0,0,0-1.4-.444,3.153,3.153,0,0,0-.826.1,2.234,2.234,0,0,0-.662.306,1.574,1.574,0,0,0-.662,1.063h4v.034Zm7.8-1.1V80.36a1.147,1.147,0,0,0,.247.823,1.224,1.224,0,0,0,.908.273,2.326,2.326,0,0,0,.494-.034,2.974,2.974,0,0,0,.414-.1l.041,1.887c-.2.066-.494.1-.823.171a9.435,9.435,0,0,1-.994.072,5.042,5.042,0,0,1-1.567-.2,2.732,2.732,0,0,1-1.033-.548,1.892,1.892,0,0,1-.535-.892,4.773,4.773,0,0,1-.164-1.132V77.378H19.83V75.455h1.489V73.4h3.054v2.058h2.185v1.922Zm5.033-5.42a1.49,1.49,0,0,0-1.654,1.271c0,.755.619,1.236,1.53,1.236a.36.36,0,0,0,.207-.034,1.654,1.654,0,0,1-1.4,1.028h-.131v1.2h.164A3.883,3.883,0,0,0,30.1,75.9a2.87,2.87,0,0,0,1.071-2.333A1.645,1.645,0,0,0,29.4,71.96Zm7.142,5.8a3.366,3.366,0,0,0-.868-.514,2.82,2.82,0,0,0-1.071-.2,1.965,1.965,0,0,0-.784.137.493.493,0,0,0-.372.481c0,.2.125.376.414.478a7.85,7.85,0,0,0,1.319.306,5.781,5.781,0,0,1,2.023.719,2.032,2.032,0,0,1,.7.688,1.813,1.813,0,0,1,.247.962,2.283,2.283,0,0,1-1.319,2.057,4.918,4.918,0,0,1-1.28.444,6.832,6.832,0,0,1-1.444.137,7.848,7.848,0,0,1-2.229-.306,4.889,4.889,0,0,1-1.814-.892l1.731-1.51a3.954,3.954,0,0,0,1.033.618,3.255,3.255,0,0,0,1.28.239,1.9,1.9,0,0,0,.743-.137.529.529,0,0,0,.372-.514c0-.239-.168-.413-.454-.549a8.656,8.656,0,0,0-1.405-.341,10.115,10.115,0,0,1-.994-.243,3.167,3.167,0,0,1-.863-.41,2.538,2.538,0,0,1-.621-.652,1.759,1.759,0,0,1-.247-.927,1.96,1.96,0,0,1,.372-1.2,2.644,2.644,0,0,1,.908-.791,3.709,3.709,0,0,1,1.238-.447,6.119,6.119,0,0,1,1.362-.137,8.226,8.226,0,0,1,2.065.273,4.337,4.337,0,0,1,1.694.823L36.548,77.75ZM.39,96.071V84.991H9.347v2.264H3.489v2.1h5.53v2.126H3.489v2.3h6.19v2.3H.394Zm17.42,0V91.822a3.092,3.092,0,0,0-.085-.618,1.606,1.606,0,0,0-.207-.514.93.93,0,0,0-.41-.345,1.359,1.359,0,0,0-.7-.138,1.645,1.645,0,0,0-.743.138,1.791,1.791,0,0,0-.535.376,2.532,2.532,0,0,0-.33.552,1.648,1.648,0,0,0-.125.612v4.221h-3.1V88.321h2.974v1.063h.041a1.8,1.8,0,0,1,.451-.478,2.317,2.317,0,0,1,.621-.413,5.176,5.176,0,0,1,.784-.273,4.59,4.59,0,0,1,2.517.171,3.164,3.164,0,0,1,1.079.719,2.647,2.647,0,0,1,.575,1.028,3.63,3.63,0,0,1,.164,1.168v4.8H17.8v-.038Zm11.06-5.278a1.87,1.87,0,0,0-.7-.448,2.83,2.83,0,0,0-.908-.171,2.2,2.2,0,0,0-.869.171,1.633,1.633,0,0,0-.659.444,3.356,3.356,0,0,0-.454.618,1.574,1.574,0,0,0-.168.752,1.557,1.557,0,0,0,.168.755,1.417,1.417,0,0,0,.451.618,2.248,2.248,0,0,0,.7.444,2.613,2.613,0,0,0,.908.171,3.06,3.06,0,0,0,.948-.137,1.941,1.941,0,0,0,.743-.444l1.691,1.748a4.287,4.287,0,0,1-1.487.719,7.365,7.365,0,0,1-4,0,4.633,4.633,0,0,1-1.691-.823,4.18,4.18,0,0,1-1.115-1.3,3.5,3.5,0,0,1-.41-1.753,3.366,3.366,0,0,1,.41-1.715,4.381,4.381,0,0,1,2.8-2.127,6.758,6.758,0,0,1,2.065-.273,9.893,9.893,0,0,1,.994.072c.331.072.662.137.951.207a8.8,8.8,0,0,1,.863.341,2.823,2.823,0,0,1,.662.444L28.875,90.79Zm9-.376a1.726,1.726,0,0,0-.411-.072h-.372a3,3,0,0,0-1.033.171,2.175,2.175,0,0,0-.659.444,1.826,1.826,0,0,0-.372.585,1.453,1.453,0,0,0-.125.546V96.07H31.8V88.288h2.973V89.42h.041a2.54,2.54,0,0,1,1.031-.96,3.185,3.185,0,0,1,1.53-.376h.372c.122,0,.2.034.288.034l-.168,2.3Zm7.267,6.825c-.207.41-.414.755-.619,1.1a4.259,4.259,0,0,1-.825.824,3.947,3.947,0,0,1-1.115.514,6.447,6.447,0,0,1-1.53.171,8.161,8.161,0,0,1-.908-.034,4.386,4.386,0,0,1-.784-.137l.33-2.161.5.1a2.478,2.478,0,0,0,.494.034,1.586,1.586,0,0,0,1.033-.273,1.855,1.855,0,0,0,.535-.791l.288-.652-3.922-7.649h3.425L44.139,93.3h.044l1.859-5.011H49.3l-4.17,8.954Zm15.434-5.078a4.087,4.087,0,0,1-1.156,2.916,4.624,4.624,0,0,1-1.405.927,4.713,4.713,0,0,1-1.9.341,5.3,5.3,0,0,1-1.649-.276,3.037,3.037,0,0,1-1.2-.791h-.042v4.631H50.128V88.391h2.929v.96H53.1a4.074,4.074,0,0,1,1.2-.823,4.186,4.186,0,0,1,1.816-.344,4.782,4.782,0,0,1,1.859.344,3.982,3.982,0,0,1,1.4.891,4.237,4.237,0,0,1,.868,1.3,3.073,3.073,0,0,1,.329,1.438Zm-3.014,0a2.206,2.206,0,0,0-.122-.719,1.743,1.743,0,0,0-.414-.618,1.869,1.869,0,0,0-.7-.444,2.719,2.719,0,0,0-1.9,0,2.275,2.275,0,0,0-.7.444,1.989,1.989,0,0,0-.454.652,1.53,1.53,0,0,0-.164.719,1.51,1.51,0,0,0,.164.719,2.41,2.41,0,0,0,.451.653,2.364,2.364,0,0,0,.7.444,2.719,2.719,0,0,0,1.9,0,2.271,2.271,0,0,0,.7-.444,1.882,1.882,0,0,0,.414-.653,2.665,2.665,0,0,0,.122-.755Zm7.928-1.958V93.2a1.147,1.147,0,0,0,.247.823,1.224,1.224,0,0,0,.908.273,2.327,2.327,0,0,0,.494-.034,2.738,2.738,0,0,0,.414-.1l.041,1.887c-.2.066-.494.1-.823.171a9.437,9.437,0,0,1-.994.072,5.105,5.105,0,0,1-1.567-.207,2.732,2.732,0,0,1-1.033-.546,1.891,1.891,0,0,1-.535-.893,4.773,4.773,0,0,1-.164-1.131v-3.3H60.979v-1.92h1.487v-2.06H65.48v2.06h2.187v1.92H65.48Z" transform="translate(-0.39 -55.713)" fill="#003a70"/>
      </g>
    </g>
  </g>
</svg>
