<svg id="wing" xmlns="http://www.w3.org/2000/svg" width="52.537" height="38.103" viewBox="0 0 52.537 38.103">
  <g id="Grupo_744" data-name="Grupo 744">
    <g id="Grupo_739" data-name="Grupo 739" transform="translate(9.129)">
      <path id="Caminho_2056" data-name="Caminho 2056" d="M68.51,146.929H88.657a1.28,1.28,0,0,0,.213-.017c6.348-1.007,11-3.435,14.417-6.911-9.751,3.034-21.773,5.175-34.777,6.929Z" transform="translate(-68.51 -121.346)" fill="#fff"/>
      <path id="Caminho_2057" data-name="Caminho 2057" d="M68.51,90.59H88.591a.735.735,0,0,0,.328-.076c7.888-3.841,12.293-9.178,14.368-15.514-6.673,5.948-19.82,10.907-34.777,15.59Z" transform="translate(-68.51 -65.007)" fill="#fff"/>
      <path id="Caminho_2058" data-name="Caminho 2058" d="M68.51,25.583H88.534a.617.617,0,0,0,.4-.148C96.479,18.967,100.71,10.087,103.285,0,93.428,10.957,82.486,20.4,68.51,25.583Z" transform="translate(-68.51)" fill="#fff"/>
    </g>
    <g id="Grupo_740" data-name="Grupo 740" transform="translate(9.129)">
      <path id="Caminho_2059" data-name="Caminho 2059" d="M68.51,146.929H88.657a1.28,1.28,0,0,0,.213-.017c6.348-1.007,11-3.435,14.417-6.911-9.751,3.034-21.773,5.175-34.777,6.929Z" transform="translate(-68.51 -121.346)" fill="#0644bf" opacity="0.7"/>
      <path id="Caminho_2060" data-name="Caminho 2060" d="M68.51,90.59H88.591a.735.735,0,0,0,.328-.076c7.888-3.841,12.293-9.178,14.368-15.514-6.673,5.948-19.82,10.907-34.777,15.59Z" transform="translate(-68.51 -65.007)" fill="#0644bf" opacity="0.7"/>
      <path id="Caminho_2061" data-name="Caminho 2061" d="M68.51,25.583H88.534a.617.617,0,0,0,.4-.148C96.479,18.967,100.71,10.087,103.285,0,93.428,10.957,82.486,20.4,68.51,25.583Z" transform="translate(-68.51)" fill="#0644bf" opacity="0.7"/>
    </g>
    <g id="Grupo_743" data-name="Grupo 743" transform="translate(0 29.528)">
      <g id="Grupo_741" data-name="Grupo 741">
        <path id="Caminho_2062" data-name="Caminho 2062" d="M2.256,223.01,3.7,228.381l1.757-5.371h1.72l1.632,5.371,1.57-5.371h2.256l-2.654,8.312H7.777l-1.508-4.81-1.595,4.81H2.481L0,223.01Z" transform="translate(0 -222.823)" fill="#fff"/>
        <path id="Caminho_2063" data-name="Caminho 2063" d="M145.616,223.01v8.312H143.46V223.01h2.156Z" transform="translate(-124.345 -222.823)" fill="#fff"/>
        <path id="Caminho_2064" data-name="Caminho 2064" d="M214.82,231.322V223.01h2.156l3.975,5.085V223.01h2.156v8.312h-2.156l-3.975-5.085v5.085Z" transform="translate(-186.196 -222.823)" fill="#fff"/>
        <path id="Caminho_2065" data-name="Caminho 2065" d="M333.742,225.4h4.286a4.651,4.651,0,0,1-1.334,3.739,4.058,4.058,0,0,1-2.929,1.047,4.3,4.3,0,0,1-3.19-1.234,4.187,4.187,0,0,1-1.2-3,4.246,4.246,0,0,1,1.246-3.115,4.829,4.829,0,0,1,5.47-.661,4.081,4.081,0,0,1,1.483,1.707l-2.056.847a2.034,2.034,0,0,0-.6-.835,1.746,1.746,0,0,0-1.159-.412,2.007,2.007,0,0,0-1.42.573,2.8,2.8,0,0,0-.722,1.907,2.6,2.6,0,0,0,.661,1.795,1.966,1.966,0,0,0,1.52.636A1.781,1.781,0,0,0,335,228a1.477,1.477,0,0,0,.51-.922h-1.769V225.4Z" transform="translate(-285.492 -221.61)" fill="#fff"/>
      </g>
    </g>
  </g>
</svg>
